<svg data-v-423bf9ae="" xmlns="http://www.w3.org/2000/svg" viewBox="0 0 784 90" class="iconLeft"><!----><!----><!----><g data-v-423bf9ae="" id="13a1bc9a-c17d-42d6-9ff3-32f47ec53732" fill="white" transform="matrix(5.352260581326856,0,0,5.352260581326856,173.66125392190787,-11.68101828200679)"><path d="M1.65 12.22L1.65 12.22Q1.68 11.47 1.72 10.65Q1.76 9.83 1.81 9.09Q1.86 8.34 1.90 7.76Q1.95 7.17 1.96 6.87L1.96 6.87Q1.99 6.57 1.94 6.22Q1.89 5.88 1.65 5.68L1.65 5.68Q1.44 5.52 1.20 5.43Q0.97 5.33 0.67 5.25L0.67 5.25Q0.42 5.18 0.32 5.28Q0.22 5.38 0.20 5.71L0.20 5.71Q0.15 6.34 0.12 7.11Q0.08 7.88 0.06 8.71Q0.04 9.53 0.03 10.38Q0.01 11.23 0.01 12.04L0.01 12.04Q0.01 12.84 0.04 13.56Q0.06 14.28 0.08 14.84L0.08 14.84Q0.10 15.23 0.18 15.42Q0.27 15.61 0.49 15.72L0.49 15.72Q0.98 15.96 1.54 16.11L1.54 16.11Q1.75 16.17 1.88 16.12Q2.02 16.07 2.13 15.78L2.13 15.78Q2.24 15.43 2.42 14.90Q2.59 14.38 2.80 13.78Q3.01 13.17 3.23 12.54Q3.46 11.90 3.67 11.33L3.67 11.33Q3.67 11.77 3.70 12.26Q3.72 12.75 3.76 13.22Q3.79 13.69 3.83 14.11Q3.86 14.52 3.89 14.80L3.89 14.80Q3.92 15.09 4.03 15.34Q4.14 15.58 4.41 15.72L4.41 15.72Q4.68 15.82 4.86 15.90Q5.04 15.99 5.38 16.09L5.38 16.09Q5.68 16.17 5.84 16.09Q6.01 16.02 6.09 15.75L6.09 15.75Q6.24 15.18 6.45 14.45Q6.65 13.72 6.87 12.92Q7.10 12.11 7.34 11.27Q7.59 10.43 7.83 9.64Q8.06 8.85 8.28 8.13Q8.50 7.42 8.68 6.89L8.68 6.89Q8.76 6.61 8.75 6.32Q8.74 6.03 8.54 5.80L8.54 5.80Q8.18 5.45 7.78 5.21L7.78 5.21Q7.52 5.07 7.40 5.10Q7.28 5.14 7.17 5.47L7.17 5.47Q7.04 5.85 6.80 6.59Q6.57 7.32 6.29 8.24Q6.01 9.16 5.70 10.17Q5.39 11.19 5.12 12.11L5.12 12.11Q5.15 11.37 5.18 10.61Q5.21 9.84 5.24 9.18Q5.26 8.53 5.29 8.04Q5.31 7.55 5.31 7.35L5.31 7.35Q5.31 7 5.26 6.85Q5.22 6.69 4.98 6.55L4.98 6.55Q4.76 6.44 4.60 6.36Q4.44 6.27 4.20 6.20Q3.96 6.13 3.84 6.20Q3.72 6.27 3.63 6.51L3.63 6.51Q3.49 6.80 3.25 7.44Q3.02 8.08 2.75 8.88Q2.48 9.69 2.19 10.57Q1.90 11.45 1.65 12.22ZM9.60 5.84L9.60 5.84L8.54 13.93Q8.51 14.29 8.59 14.56Q8.67 14.83 8.82 15.02L8.82 15.02Q9.00 15.27 9.14 15.44Q9.28 15.60 9.44 15.75L9.44 15.75Q9.58 15.89 9.77 15.97Q9.95 16.04 10.33 15.90L10.33 15.90Q10.89 15.75 11.51 15.57Q12.12 15.39 12.71 15.22L12.71 15.22Q12.95 15.15 13.00 15.04Q13.05 14.94 12.99 14.66L12.99 14.66Q12.92 14.41 12.85 14.17Q12.78 13.93 12.67 13.66L12.67 13.66Q12.57 13.43 12.43 13.34Q12.28 13.26 12.04 13.29L12.04 13.29Q11.59 13.33 11.20 13.39Q10.81 13.45 10.39 13.57L10.39 13.57Q10.46 13.20 10.53 12.82Q10.60 12.43 10.67 12.03L10.67 12.03Q11.19 11.87 11.74 11.74Q12.29 11.61 12.82 11.47L12.82 11.47Q13.06 11.40 13.12 11.30Q13.17 11.20 13.10 10.91L13.10 10.91Q13.05 10.65 12.98 10.42Q12.92 10.18 12.81 9.93L12.81 9.93Q12.71 9.69 12.57 9.61Q12.43 9.53 12.19 9.55L12.19 9.55Q11.91 9.56 11.66 9.58Q11.40 9.60 11.13 9.66L11.13 9.66Q11.27 9.03 11.38 8.46Q11.49 7.88 11.61 7.36L11.61 7.36Q12.19 7.25 12.73 7.17Q13.27 7.08 13.76 7.01L13.76 7.01Q14 6.97 14.06 6.87Q14.13 6.76 14.08 6.47L14.08 6.47Q14.03 6.22 13.98 6.01Q13.93 5.80 13.82 5.53L13.82 5.53Q13.68 5.03 13.22 5.05L13.22 5.05Q12.24 5.11 11.28 5.35Q10.32 5.59 9.60 5.84ZM18.75 10.68L18.75 10.68Q19.03 10.46 19.24 10.23Q19.46 10.01 19.66 9.79L19.66 9.79Q20.02 9.34 20.24 8.75Q20.47 8.16 20.36 7.49L20.36 7.49Q20.24 6.89 20.03 6.45Q19.81 6.01 19.52 5.61L19.52 5.61Q19.18 5.19 18.59 5.08Q17.99 4.96 17.32 5.05Q16.65 5.14 15.98 5.40Q15.32 5.67 14.84 6.01L14.84 6.01Q14.80 6.87 14.69 7.89Q14.59 8.90 14.48 9.93Q14.36 10.96 14.25 11.95Q14.14 12.94 14.08 13.75L14.08 13.75Q14.06 14 14.06 14.17Q14.07 14.34 14.11 14.47Q14.15 14.60 14.23 14.72Q14.31 14.84 14.41 15.01L14.41 15.01Q14.67 15.33 14.88 15.53Q15.08 15.74 15.36 15.92L15.36 15.92Q15.50 16.04 15.61 16.11Q15.72 16.17 15.84 16.18Q15.96 16.20 16.09 16.16Q16.21 16.13 16.39 16.06L16.39 16.06Q16.73 15.93 17.10 15.74Q17.47 15.55 17.84 15.32Q18.20 15.08 18.52 14.79Q18.84 14.50 19.08 14.18L19.08 14.18Q19.40 13.78 19.55 13.35Q19.70 12.92 19.63 12.33L19.63 12.33Q19.56 11.84 19.33 11.39Q19.10 10.93 18.75 10.68ZM16.45 9.80L16.45 9.80Q16.56 9.17 16.66 8.61Q16.76 8.05 16.87 7.56L16.87 7.56Q17.58 7.11 18.09 7.09Q18.59 7.07 18.66 7.36L18.66 7.36Q18.70 7.55 18.57 7.85Q18.44 8.16 18.14 8.51Q17.85 8.86 17.42 9.21Q17.00 9.55 16.45 9.80ZM16.09 11.89L16.09 11.89Q16.44 11.72 16.73 11.66Q17.02 11.61 17.25 11.64Q17.47 11.68 17.61 11.77Q17.74 11.87 17.78 12.01L17.78 12.01Q17.82 12.24 17.69 12.50Q17.56 12.77 17.29 13.04Q17.02 13.31 16.63 13.56Q16.24 13.80 15.76 13.99L15.76 13.99Q15.83 13.45 15.92 12.94Q16.00 12.42 16.09 11.89ZM24.70 5.89L24.70 5.89L23.91 13.61Q23.87 13.94 23.88 14.16Q23.90 14.38 23.95 14.53Q24.00 14.69 24.08 14.80Q24.16 14.92 24.25 15.05L24.25 15.05Q24.49 15.33 24.67 15.52Q24.86 15.71 25.13 15.90L25.13 15.90Q25.63 16.31 26.12 16.03L26.12 16.03Q27.05 15.64 27.76 15.01Q28.48 14.38 28.97 13.61Q29.47 12.84 29.77 11.98Q30.07 11.13 30.17 10.28Q30.27 9.44 30.18 8.64Q30.10 7.85 29.83 7.22L29.83 7.22Q29.54 6.48 29.13 6.03Q28.73 5.59 28.26 5.36Q27.79 5.14 27.29 5.10Q26.80 5.07 26.33 5.17Q25.86 5.26 25.43 5.47Q25.00 5.67 24.70 5.89ZM25.66 13.85L25.66 13.85Q25.90 12.15 26.16 10.56Q26.42 8.96 26.73 7.43L26.73 7.43Q27.26 7.20 27.64 7.38Q28.03 7.57 28.18 7.97L28.18 7.97Q28.25 8.16 28.29 8.44Q28.34 8.72 28.32 9.09L28.32 9.09Q28.31 9.62 28.15 10.26Q28 10.91 27.68 11.55Q27.37 12.19 26.87 12.80Q26.38 13.40 25.66 13.85ZM31.70 5.84L31.70 5.84L30.63 13.93Q30.60 14.29 30.68 14.56Q30.76 14.83 30.91 15.02L30.91 15.02Q31.09 15.27 31.23 15.44Q31.37 15.60 31.53 15.75L31.53 15.75Q31.67 15.89 31.86 15.97Q32.05 16.04 32.42 15.90L32.42 15.90Q32.98 15.75 33.60 15.57Q34.22 15.39 34.80 15.22L34.80 15.22Q35.04 15.15 35.09 15.04Q35.14 14.94 35.08 14.66L35.08 14.66Q35.01 14.41 34.94 14.17Q34.87 13.93 34.76 13.66L34.76 13.66Q34.66 13.43 34.52 13.34Q34.37 13.26 34.13 13.29L34.13 13.29Q33.68 13.33 33.29 13.39Q32.90 13.45 32.48 13.57L32.48 13.57Q32.55 13.20 32.62 12.82Q32.69 12.43 32.76 12.03L32.76 12.03Q33.28 11.87 33.83 11.74Q34.38 11.61 34.92 11.47L34.92 11.47Q35.15 11.40 35.21 11.30Q35.27 11.20 35.20 10.91L35.20 10.91Q35.14 10.65 35.08 10.42Q35.01 10.18 34.90 9.93L34.90 9.93Q34.80 9.69 34.66 9.61Q34.52 9.53 34.29 9.55L34.29 9.55Q34.01 9.56 33.75 9.58Q33.49 9.60 33.22 9.66L33.22 9.66Q33.36 9.03 33.47 8.46Q33.59 7.88 33.70 7.36L33.70 7.36Q34.29 7.25 34.82 7.17Q35.36 7.08 35.85 7.01L35.85 7.01Q36.09 6.97 36.16 6.87Q36.22 6.76 36.18 6.47L36.18 6.47Q36.12 6.22 36.07 6.01Q36.02 5.80 35.91 5.53L35.91 5.53Q35.77 5.03 35.31 5.05L35.31 5.05Q34.33 5.11 33.37 5.35Q32.41 5.59 31.70 5.84ZM42.62 6.72L42.62 6.72Q42.76 6.23 42.57 5.94Q42.39 5.66 42.06 5.42L42.06 5.42Q41.90 5.29 41.75 5.19Q41.59 5.10 41.46 5.08Q41.33 5.05 41.22 5.12Q41.12 5.19 41.06 5.39L41.06 5.39Q40.57 7.14 40.04 9.07Q39.51 11.00 38.92 12.85L38.92 12.85Q38.84 11.91 38.77 11.00Q38.70 10.08 38.63 9.24Q38.57 8.40 38.52 7.68Q38.47 6.96 38.43 6.40L38.43 6.40Q38.36 5.68 37.84 5.43L37.84 5.43Q37.62 5.32 37.42 5.27Q37.23 5.22 36.99 5.22L36.99 5.22Q36.75 5.22 36.69 5.34Q36.64 5.46 36.64 5.75L36.64 5.75Q36.72 8.08 36.88 10.20Q37.04 12.32 37.30 14.11L37.30 14.11Q37.35 14.43 37.52 14.83Q37.69 15.23 38.02 15.47L38.02 15.47Q38.33 15.69 38.61 15.83Q38.89 15.97 39.21 16.11Q39.54 16.25 39.71 16.16Q39.89 16.07 40.03 15.72L40.03 15.72Q40.22 15.15 40.46 14.40Q40.70 13.65 40.96 12.82Q41.22 11.98 41.47 11.12Q41.72 10.25 41.94 9.44Q42.17 8.62 42.34 7.92Q42.52 7.22 42.62 6.72ZM43.61 5.84L43.61 5.84L42.55 13.93Q42.52 14.29 42.59 14.56Q42.67 14.83 42.83 15.02L42.83 15.02Q43.01 15.27 43.15 15.44Q43.29 15.60 43.44 15.75L43.44 15.75Q43.58 15.89 43.77 15.97Q43.96 16.04 44.34 15.90L44.34 15.90Q44.90 15.75 45.51 15.57Q46.13 15.39 46.72 15.22L46.72 15.22Q46.96 15.15 47.00 15.04Q47.05 14.94 47.00 14.66L47.00 14.66Q46.93 14.41 46.86 14.17Q46.79 13.93 46.68 13.66L46.68 13.66Q46.58 13.43 46.43 13.34Q46.28 13.26 46.05 13.29L46.05 13.29Q45.60 13.33 45.21 13.39Q44.81 13.45 44.39 13.57L44.39 13.57Q44.46 13.20 44.53 12.82Q44.60 12.43 44.67 12.03L44.67 12.03Q45.19 11.87 45.74 11.74Q46.30 11.61 46.83 11.47L46.83 11.47Q47.07 11.40 47.12 11.30Q47.18 11.20 47.11 10.91L47.11 10.91Q47.05 10.65 46.99 10.42Q46.93 10.18 46.82 9.93L46.82 9.93Q46.72 9.69 46.58 9.61Q46.44 9.53 46.20 9.55L46.20 9.55Q45.92 9.56 45.66 9.58Q45.40 9.60 45.14 9.66L45.14 9.66Q45.28 9.03 45.39 8.46Q45.50 7.88 45.61 7.36L45.61 7.36Q46.20 7.25 46.74 7.17Q47.28 7.08 47.77 7.01L47.77 7.01Q48.01 6.97 48.07 6.87Q48.13 6.76 48.09 6.47L48.09 6.47Q48.03 6.22 47.98 6.01Q47.94 5.80 47.82 5.53L47.82 5.53Q47.68 5.03 47.22 5.05L47.22 5.05Q46.24 5.11 45.28 5.35Q44.32 5.59 43.61 5.84ZM51.94 15.20L51.94 15.20Q52.22 15.12 52.25 15.02Q52.28 14.92 52.21 14.63L52.21 14.63Q52.16 14.39 52.09 14.14Q52.01 13.89 51.90 13.65L51.90 13.65Q51.79 13.40 51.65 13.32Q51.51 13.24 51.27 13.27L51.27 13.27Q50.85 13.31 50.48 13.37Q50.11 13.43 49.70 13.52L49.70 13.52Q49.84 12.63 50.01 11.68Q50.18 10.72 50.34 9.80Q50.51 8.88 50.68 8.02Q50.85 7.17 51.00 6.48L51.00 6.48Q51.07 6.20 51.02 6.04Q50.97 5.88 50.75 5.68Q50.53 5.49 50.23 5.33Q49.94 5.17 49.69 5.08L49.69 5.08Q49.45 4.98 49.31 5.05Q49.18 5.11 49.10 5.42L49.10 5.42Q48.97 5.99 48.84 6.70Q48.71 7.41 48.57 8.19Q48.44 8.97 48.31 9.79Q48.19 10.60 48.08 11.36Q47.98 12.12 47.90 12.80Q47.82 13.48 47.78 14L47.78 14Q47.74 14.34 47.82 14.58Q47.89 14.83 48.05 15.02L48.05 15.02Q48.26 15.27 48.38 15.44Q48.51 15.60 48.66 15.75L48.66 15.75Q48.79 15.88 48.97 15.97Q49.15 16.06 49.56 15.89L49.56 15.89Q50.12 15.72 50.74 15.55Q51.35 15.37 51.94 15.20ZM58.10 5.92L58.10 5.92Q57.82 5.63 57.39 5.43Q56.97 5.22 56.50 5.12L56.50 5.12Q56.15 5.05 55.75 5.20Q55.36 5.35 55.08 5.64L55.08 5.64Q54.40 6.38 53.96 7.48Q53.51 8.58 53.29 9.78Q53.07 10.98 53.10 12.15Q53.13 13.33 53.42 14.25L53.42 14.25Q53.55 14.64 53.79 14.95Q54.03 15.26 54.26 15.46L54.26 15.46Q54.57 15.69 54.94 15.81Q55.31 15.93 55.66 15.99L55.66 15.99Q56.20 16.07 56.61 15.93Q57.02 15.78 57.39 15.34L57.39 15.34Q57.90 14.63 58.24 13.64Q58.58 12.66 58.75 11.59Q58.93 10.51 58.94 9.46Q58.95 8.40 58.83 7.53L58.83 7.53Q58.74 7.04 58.58 6.65Q58.42 6.26 58.10 5.92ZM56.80 7.03L56.80 7.03Q56.97 7.10 57.05 7.52Q57.13 7.94 57.14 8.53Q57.15 9.11 57.09 9.79Q57.04 10.46 56.92 11.05L56.92 11.05Q56.80 11.79 56.62 12.42Q56.43 13.05 56.23 13.49Q56.03 13.93 55.81 14.14Q55.59 14.35 55.41 14.25L55.41 14.25Q55.20 14.15 55.10 13.75Q55.01 13.34 54.99 12.78Q54.98 12.21 55.04 11.55Q55.10 10.89 55.23 10.30L55.23 10.30Q55.36 9.73 55.55 9.11Q55.75 8.50 55.96 8.02Q56.18 7.53 56.41 7.25Q56.63 6.96 56.80 7.03ZM61.60 12.84L61.60 12.84Q62.15 12.63 62.68 12.33Q63.22 12.04 63.71 11.68Q64.20 11.33 64.62 10.92Q65.03 10.51 65.31 10.09L65.31 10.09Q65.65 9.59 65.85 9.02Q66.05 8.46 65.90 7.74Q65.74 7.03 65.48 6.54Q65.23 6.05 64.93 5.64L64.93 5.64Q64.57 5.18 64.03 5.12Q63.49 5.07 62.89 5.24Q62.29 5.42 61.68 5.75Q61.08 6.09 60.61 6.43L60.61 6.43Q60.52 6.48 60.44 7.02Q60.37 7.56 60.28 8.37Q60.20 9.18 60.12 10.14Q60.03 11.10 59.95 12.01Q59.86 12.91 59.77 13.63Q59.68 14.35 59.58 14.67L59.58 14.67Q59.51 15.04 59.59 15.26Q59.67 15.48 59.84 15.63Q60.00 15.78 60.23 15.87Q60.47 15.96 60.70 16.06L60.70 16.06Q60.94 16.13 61.03 16.06Q61.11 15.99 61.17 15.76L61.17 15.76Q61.25 15.05 61.36 14.32Q61.47 13.59 61.60 12.84ZM62.01 10.43L62.01 10.43Q62.15 9.66 62.27 8.97Q62.40 8.27 62.54 7.64L62.54 7.64Q62.85 7.46 63.15 7.37Q63.45 7.28 63.69 7.27Q63.92 7.27 64.08 7.34Q64.23 7.41 64.26 7.55L64.26 7.55Q64.33 7.80 64.22 8.18Q64.11 8.55 63.82 8.96Q63.53 9.37 63.08 9.76Q62.62 10.15 62.01 10.43ZM67.06 5.84L67.06 5.84L66.00 13.93Q65.97 14.29 66.04 14.56Q66.12 14.83 66.28 15.02L66.28 15.02Q66.46 15.27 66.60 15.44Q66.74 15.60 66.89 15.75L66.89 15.75Q67.03 15.89 67.22 15.97Q67.41 16.04 67.79 15.90L67.79 15.90Q68.35 15.75 68.96 15.57Q69.58 15.39 70.17 15.22L70.17 15.22Q70.41 15.15 70.45 15.04Q70.50 14.94 70.45 14.66L70.45 14.66Q70.38 14.41 70.31 14.17Q70.24 13.93 70.13 13.66L70.13 13.66Q70.03 13.43 69.88 13.34Q69.73 13.26 69.50 13.29L69.50 13.29Q69.05 13.33 68.66 13.39Q68.26 13.45 67.84 13.57L67.84 13.57Q67.91 13.20 67.98 12.82Q68.05 12.43 68.12 12.03L68.12 12.03Q68.64 11.87 69.19 11.74Q69.75 11.61 70.28 11.47L70.28 11.47Q70.52 11.40 70.57 11.30Q70.63 11.20 70.56 10.91L70.56 10.91Q70.50 10.65 70.44 10.42Q70.38 10.18 70.27 9.93L70.27 9.93Q70.17 9.69 70.03 9.61Q69.89 9.53 69.65 9.55L69.65 9.55Q69.37 9.56 69.11 9.58Q68.85 9.60 68.59 9.66L68.59 9.66Q68.73 9.03 68.84 8.46Q68.95 7.88 69.06 7.36L69.06 7.36Q69.65 7.25 70.19 7.17Q70.73 7.08 71.22 7.01L71.22 7.01Q71.46 6.97 71.52 6.87Q71.58 6.76 71.54 6.47L71.54 6.47Q71.48 6.22 71.43 6.01Q71.39 5.80 71.27 5.53L71.27 5.53Q71.13 5.03 70.67 5.05L70.67 5.05Q69.69 5.11 68.73 5.35Q67.77 5.59 67.06 5.84ZM73.56 12.59L73.56 12.59Q73.79 13.01 74.08 13.43Q74.37 13.86 74.66 14.25Q74.96 14.64 75.24 14.98Q75.52 15.32 75.73 15.54L75.73 15.54Q76.05 15.83 76.30 15.87Q76.55 15.90 76.75 15.82L76.75 15.82Q76.92 15.78 77.03 15.74Q77.15 15.71 77.31 15.51L77.31 15.51Q77.45 15.36 77.46 15.22Q77.48 15.08 77.28 14.84L77.28 14.84Q77.04 14.56 76.78 14.20Q76.51 13.83 76.24 13.45Q75.96 13.06 75.71 12.67Q75.46 12.28 75.25 11.94L75.25 11.94Q76.23 11.31 76.92 10.59Q77.60 9.87 77.87 9.03L77.87 9.03Q78.05 8.54 77.90 7.74L77.90 7.74Q77.74 7.03 77.48 6.54Q77.22 6.05 76.93 5.64L76.93 5.64Q76.57 5.18 76.08 5.08Q75.60 4.97 75.07 5.10Q74.54 5.22 73.98 5.51Q73.43 5.80 72.93 6.10L72.93 6.10Q72.77 6.20 72.63 6.77Q72.49 7.34 72.35 8.16Q72.21 8.99 72.09 9.96Q71.97 10.93 71.88 11.85Q71.78 12.77 71.70 13.52Q71.62 14.28 71.58 14.67L71.58 14.67Q71.55 15.04 71.61 15.25Q71.67 15.47 71.83 15.62L71.83 15.62Q72.00 15.76 72.20 15.82Q72.39 15.88 72.63 15.97L72.63 15.97Q72.86 16.04 72.94 15.97Q73.02 15.90 73.07 15.68L73.07 15.68Q73.18 14.92 73.30 14.16Q73.42 13.40 73.56 12.59ZM74.54 7.60L74.54 7.60Q74.86 7.39 75.15 7.31Q75.45 7.22 75.68 7.22L75.68 7.22Q76.17 7.22 76.29 7.55L76.29 7.55Q76.34 7.74 76.21 8.11Q76.08 8.47 75.77 8.88Q75.47 9.28 75.01 9.69Q74.55 10.09 73.96 10.37L73.96 10.37Q74.13 9.58 74.26 8.88Q74.40 8.19 74.54 7.60ZM87.29 9.51L87.29 9.51Q87.32 9.31 87.34 9.03Q87.36 8.75 87.37 8.45Q87.37 8.15 87.37 7.84Q87.36 7.53 87.33 7.29L87.33 7.29Q87.28 6.85 87.14 6.49Q87.01 6.13 86.73 5.84L86.73 5.84Q86.44 5.52 85.99 5.30Q85.55 5.08 85.13 5.01L85.13 5.01Q84.84 4.96 84.48 5.01Q84.11 5.07 83.82 5.36L83.82 5.36Q83.34 5.82 82.95 6.50Q82.56 7.17 82.26 7.96Q81.97 8.75 81.78 9.60Q81.59 10.46 81.52 11.30Q81.45 12.14 81.52 12.90Q81.58 13.66 81.79 14.27L81.79 14.27Q81.90 14.66 82.12 14.99Q82.35 15.32 82.59 15.51L82.59 15.51Q83.23 15.96 83.97 16.10L83.97 16.10Q84.80 16.30 85.47 15.72L85.47 15.72Q85.97 15.26 86.39 14.42Q86.81 13.58 87.11 12.39L87.11 12.39Q87.18 12.04 87.16 11.82Q87.15 11.59 87.00 11.30L87.00 11.30Q86.91 11.14 86.81 10.96Q86.72 10.78 86.60 10.63L86.60 10.63Q86.45 10.39 86.26 10.32Q86.07 10.25 85.78 10.30L85.78 10.30Q85.53 10.36 85.18 10.42Q84.83 10.49 84.50 10.58L84.50 10.58Q84.17 10.65 83.96 10.74Q83.75 10.82 83.82 11.14L83.82 11.14Q83.97 11.86 84.27 12.17Q84.56 12.49 85.09 12.45L85.09 12.45Q84.95 12.88 84.79 13.27Q84.63 13.65 84.45 13.92Q84.28 14.18 84.10 14.31Q83.93 14.43 83.76 14.35L83.76 14.35Q83.57 14.25 83.47 13.85Q83.37 13.45 83.36 12.89Q83.34 12.32 83.42 11.66Q83.50 11.00 83.65 10.40L83.65 10.40Q83.82 9.67 84.05 9.02Q84.28 8.36 84.52 7.88Q84.76 7.39 84.99 7.13Q85.22 6.86 85.39 6.93L85.39 6.93Q85.47 6.96 85.50 7.11Q85.54 7.27 85.57 7.48L85.57 7.48Q85.58 7.59 85.59 7.71Q85.60 7.83 85.60 7.95L85.60 7.95Q85.60 8.08 85.60 8.19Q85.61 8.30 85.62 8.41L85.62 8.41Q85.68 9.02 85.97 9.39Q86.25 9.77 86.86 9.88L86.86 9.88Q87.08 9.91 87.16 9.83Q87.23 9.74 87.29 9.51ZM89.91 12.59L89.91 12.59Q90.15 13.01 90.43 13.43Q90.72 13.86 91.01 14.25Q91.31 14.64 91.59 14.98Q91.87 15.32 92.08 15.54L92.08 15.54Q92.40 15.83 92.65 15.87Q92.90 15.90 93.10 15.82L93.10 15.82Q93.27 15.78 93.39 15.74Q93.51 15.71 93.66 15.51L93.66 15.51Q93.80 15.36 93.81 15.22Q93.83 15.08 93.63 14.84L93.63 14.84Q93.39 14.56 93.13 14.20Q92.86 13.83 92.59 13.45Q92.32 13.06 92.06 12.67Q91.81 12.28 91.60 11.94L91.60 11.94Q92.58 11.31 93.27 10.59Q93.95 9.87 94.22 9.03L94.22 9.03Q94.40 8.54 94.25 7.74L94.25 7.74Q94.09 7.03 93.83 6.54Q93.58 6.05 93.28 5.64L93.28 5.64Q92.92 5.18 92.44 5.08Q91.95 4.97 91.42 5.10Q90.89 5.22 90.33 5.51Q89.78 5.80 89.28 6.10L89.28 6.10Q89.12 6.20 88.98 6.77Q88.84 7.34 88.70 8.16Q88.56 8.99 88.44 9.96Q88.33 10.93 88.23 11.85Q88.13 12.77 88.05 13.52Q87.98 14.28 87.93 14.67L87.93 14.67Q87.91 15.04 87.96 15.25Q88.02 15.47 88.19 15.62L88.19 15.62Q88.35 15.76 88.55 15.82Q88.75 15.88 88.98 15.97L88.98 15.97Q89.21 16.04 89.29 15.97Q89.38 15.90 89.42 15.68L89.42 15.68Q89.53 14.92 89.65 14.16Q89.77 13.40 89.91 12.59ZM90.89 7.60L90.89 7.60Q91.21 7.39 91.50 7.31Q91.80 7.22 92.04 7.22L92.04 7.22Q92.53 7.22 92.64 7.55L92.64 7.55Q92.69 7.74 92.56 8.11Q92.43 8.47 92.13 8.88Q91.83 9.28 91.36 9.69Q90.90 10.09 90.31 10.37L90.31 10.37Q90.48 9.58 90.61 8.88Q90.75 8.19 90.89 7.60ZM99.72 5.92L99.72 5.92Q99.44 5.63 99.02 5.43Q98.59 5.22 98.13 5.12L98.13 5.12Q97.78 5.05 97.38 5.20Q96.98 5.35 96.70 5.64L96.70 5.64Q96.03 6.38 95.58 7.48Q95.13 8.58 94.91 9.78Q94.70 10.98 94.72 12.15Q94.75 13.33 95.05 14.25L95.05 14.25Q95.17 14.64 95.41 14.95Q95.65 15.26 95.89 15.46L95.89 15.46Q96.19 15.69 96.56 15.81Q96.94 15.93 97.29 15.99L97.29 15.99Q97.82 16.07 98.23 15.93Q98.64 15.78 99.01 15.34L99.01 15.34Q99.53 14.63 99.86 13.64Q100.20 12.66 100.37 11.59Q100.55 10.51 100.56 9.46Q100.58 8.40 100.45 7.53L100.45 7.53Q100.37 7.04 100.20 6.65Q100.04 6.26 99.72 5.92ZM98.42 7.03L98.42 7.03Q98.59 7.10 98.67 7.52Q98.76 7.94 98.76 8.53Q98.77 9.11 98.71 9.79Q98.66 10.46 98.55 11.05L98.55 11.05Q98.42 11.79 98.24 12.42Q98.06 13.05 97.85 13.49Q97.65 13.93 97.43 14.14Q97.22 14.35 97.03 14.25L97.03 14.25Q96.82 14.15 96.73 13.75Q96.63 13.34 96.61 12.78Q96.60 12.21 96.66 11.55Q96.73 10.89 96.85 10.30L96.85 10.30Q96.98 9.73 97.17 9.11Q97.37 8.50 97.59 8.02Q97.80 7.53 98.03 7.25Q98.25 6.96 98.42 7.03ZM101.44 14.35L101.44 14.35Q101.58 14.74 101.78 15.01Q101.98 15.27 102.20 15.47L102.20 15.47Q102.73 15.92 103.57 16.00L103.57 16.00Q103.99 16.04 104.32 15.95Q104.65 15.86 104.97 15.62L104.97 15.62Q105.42 15.23 105.76 14.41Q106.11 13.58 106.38 12.41Q106.65 11.24 106.86 9.77Q107.07 8.30 107.27 6.59L107.27 6.59Q107.31 6.30 107.27 6.15Q107.23 5.99 106.99 5.80L106.99 5.80Q106.76 5.63 106.50 5.45Q106.23 5.28 105.99 5.19Q105.76 5.11 105.59 5.18Q105.43 5.25 105.42 5.56L105.42 5.56Q105.34 6.26 105.22 7.20Q105.10 8.15 104.94 9.14Q104.79 10.14 104.61 11.10Q104.43 12.05 104.22 12.78Q104.02 13.51 103.79 13.92Q103.56 14.34 103.31 14.24L103.31 14.24Q103.11 14.15 103.04 13.76Q102.97 13.36 103.00 12.76Q103.03 12.17 103.12 11.42Q103.22 10.68 103.36 9.92Q103.50 9.16 103.66 8.41Q103.82 7.67 103.96 7.07L103.96 7.07Q104.12 6.40 103.67 5.95L103.67 5.95Q103.46 5.75 103.24 5.60Q103.01 5.45 102.77 5.35L102.77 5.35Q102.52 5.24 102.39 5.30Q102.26 5.36 102.19 5.67L102.19 5.67Q101.93 6.75 101.69 7.97Q101.44 9.20 101.30 10.38Q101.16 11.56 101.17 12.61Q101.18 13.65 101.44 14.35ZM109.54 12.84L109.54 12.84Q110.08 12.63 110.62 12.33Q111.16 12.04 111.65 11.68Q112.14 11.33 112.55 10.92Q112.97 10.51 113.25 10.09L113.25 10.09Q113.58 9.59 113.79 9.02Q113.99 8.46 113.83 7.74Q113.68 7.03 113.42 6.54Q113.16 6.05 112.87 5.64L112.87 5.64Q112.50 5.18 111.97 5.12Q111.43 5.07 110.82 5.24Q110.22 5.42 109.62 5.75Q109.02 6.09 108.54 6.43L108.54 6.43Q108.46 6.48 108.38 7.02Q108.30 7.56 108.22 8.37Q108.14 9.18 108.05 10.14Q107.97 11.10 107.88 12.01Q107.80 12.91 107.71 13.63Q107.62 14.35 107.52 14.67L107.52 14.67Q107.45 15.04 107.53 15.26Q107.60 15.48 107.77 15.63Q107.94 15.78 108.17 15.87Q108.40 15.96 108.64 16.06L108.64 16.06Q108.88 16.13 108.96 16.06Q109.05 15.99 109.10 15.76L109.10 15.76Q109.19 15.05 109.30 14.32Q109.41 13.59 109.54 12.84ZM109.94 10.43L109.94 10.43Q110.08 9.66 110.21 8.97Q110.33 8.27 110.47 7.64L110.47 7.64Q110.78 7.46 111.08 7.37Q111.38 7.28 111.62 7.27Q111.86 7.27 112.01 7.34Q112.17 7.41 112.20 7.55L112.20 7.55Q112.27 7.80 112.15 8.18Q112.04 8.55 111.76 8.96Q111.47 9.37 111.01 9.76Q110.56 10.15 109.94 10.43Z"></path></g><!----><g data-v-423bf9ae="" id="63f26af8-fb36-42bc-89db-b799ca569312" transform="matrix(4.803586662404586,0,0,4.803586662404586,0.14261340152661717,-31.22538662899096)" stroke="none" fill="white"><path d="M16 19.586l7.496-12.954H8.504zM7.496 12.414L0 25.368h14.992zM24.504 12.414l-7.496 12.954H32z"></path></g><!----></svg>